<svg width="9" height="12" viewBox="0 0 9 12" fill="none" xmlns="http://www.w3.org/2000/svg">
<path fill-rule="evenodd" clip-rule="evenodd" d="M4.50051 0C5.30931 5.66056e-05 6.0171 0.141372 6.62373 0.423916C7.23043 0.695644 7.70214 1.07621 8.0392 1.5653C8.38752 2.04355 8.56178 2.59267 8.56178 3.21221C8.56173 3.62511 8.47721 4.02709 8.30872 4.41828C8.14018 4.80954 7.89286 5.14067 7.56704 5.41239C7.46012 5.50104 7.34492 5.57793 7.22243 5.64524C7.39762 5.7265 7.56348 5.82286 7.71928 5.93482C8.12368 6.2174 8.43791 6.58188 8.66259 7.02745C8.88723 7.47303 9 7.98395 9 8.55991C8.99993 9.22272 8.81413 9.81459 8.44348 10.3362C8.07276 10.8469 7.55077 11.2548 6.87679 11.5592C6.20274 11.8526 5.41043 11.9999 4.50051 12C3.5904 12 2.79738 11.8526 2.12321 11.5592C1.44926 11.2548 0.927231 10.8469 0.556521 10.3362C0.18588 9.8146 7.40712e-05 9.22271 0 8.55991C0 7.98396 0.112781 7.47302 0.33741 7.02745C0.562131 6.58181 0.870998 6.21742 1.26426 5.93482C1.42463 5.82278 1.59308 5.72653 1.76935 5.64524C1.6446 5.57802 1.526 5.50087 1.41548 5.41239C1.10106 5.14072 0.853492 4.8094 0.673791 4.41828C0.505351 4.02715 0.42181 3.62505 0.421762 3.21221C0.421762 2.59272 0.589838 2.04351 0.926849 1.5653C1.27517 1.07619 1.75307 0.695646 2.35981 0.423916C2.97775 0.141375 3.6916 0 4.50051 0ZM4.50051 6.83141C4.24211 6.83141 4.01147 6.88594 3.80924 6.99461C3.61822 7.1033 3.46589 7.24967 3.35353 7.43445C3.24122 7.61918 3.18586 7.83128 3.18585 8.07032C3.18585 8.30924 3.24136 8.5266 3.35353 8.72212C3.46589 8.90689 3.61822 9.05426 3.80924 9.16295C4.01142 9.27155 4.24219 9.32615 4.50051 9.32615C4.75874 9.32608 4.98341 9.27157 5.17431 9.16295C5.37655 9.05426 5.53411 8.90689 5.64647 8.72212C5.75865 8.5266 5.81415 8.30925 5.81415 8.07032C5.81414 7.83126 5.75879 7.61918 5.64647 7.43445C5.53415 7.24973 5.37646 7.10329 5.17431 6.99461C4.98341 6.88599 4.75874 6.83148 4.50051 6.83141ZM4.50051 2.62509C4.20847 2.62509 3.96627 2.71707 3.77529 2.90173C3.58438 3.07554 3.48839 3.30399 3.48828 3.58637C3.48828 3.85809 3.58428 4.09227 3.77529 4.28792C3.9663 4.47269 4.20838 4.56555 4.50051 4.56555C4.79243 4.56546 5.02858 4.47765 5.20825 4.30384C5.39902 4.11913 5.49423 3.89076 5.49423 3.61921C5.49417 3.33687 5.399 3.10333 5.20825 2.91865C5.02858 2.72311 4.79243 2.6252 4.50051 2.62509Z" fill="#191F2A"/>
</svg>
