<svg width="9" height="12" viewBox="0 0 9 12" fill="none" xmlns="http://www.w3.org/2000/svg">
<path fill-rule="evenodd" clip-rule="evenodd" d="M4.5 0C5.35869 2.20093e-06 6.12486 0.182655 6.79876 0.547294C7.47264 0.911922 8.00566 1.40865 8.39695 2.03844C8.79912 2.65723 9 3.35912 9 4.14365C9 5.07181 8.68502 6.00566 8.05462 6.94487L4.67912 12H1.05982L3.81634 8.1305C3.16098 8.09609 2.55707 7.92245 2.0052 7.60749C1.39672 7.24292 0.907855 6.76238 0.538368 6.16591C0.179674 5.55817 0 4.88399 0 4.14365C0 3.35912 0.195827 2.65723 0.58713 2.03844C0.989282 1.40873 1.52742 0.911887 2.20124 0.547294C2.88602 0.182653 3.65218 0 4.5 0ZM4.5 2.75164C4.22841 2.75164 3.98388 2.81748 3.76659 2.94992C3.56006 3.07147 3.39654 3.24899 3.27698 3.48103C3.15759 3.70186 3.0979 3.95578 3.09786 4.24279C3.09786 4.52994 3.15754 4.7898 3.27698 5.02175C3.39654 5.24274 3.56006 5.42026 3.76659 5.55286C3.98388 5.67427 4.22842 5.73495 4.5 5.73495C4.7717 5.73495 5.01099 5.67438 5.21749 5.55286C5.43488 5.42026 5.60346 5.24274 5.72302 5.02175C5.84246 4.7898 5.90215 4.52993 5.90215 4.24279C5.9021 3.95579 5.84241 3.70186 5.72302 3.48103C5.60346 3.24899 5.43488 3.07147 5.21749 2.94992C5.01099 2.81736 4.7717 2.75165 4.5 2.75164Z" fill="#191F2A"/>
</svg>
