<svg width="9" height="12" viewBox="0 0 9 12" fill="none" xmlns="http://www.w3.org/2000/svg">
<path fill-rule="evenodd" clip-rule="evenodd" d="M5.18266 3.86849C5.84724 3.90344 6.45147 4.08321 6.9948 4.4087C7.60343 4.76228 8.08704 5.2436 8.44571 5.85129C8.81512 6.44788 9 7.11617 9 7.85635C9 8.64078 8.79902 9.34797 8.39695 9.97774C8.00565 10.5965 7.47265 11.0881 6.79876 11.4527C6.12486 11.8173 5.35869 12 4.5 12C3.65218 12 2.88602 11.8173 2.20124 11.4527C1.52734 11.0881 0.989299 10.5965 0.58713 9.97774C0.195844 9.34792 0 8.64086 0 7.85635C3.57867e-06 6.92819 0.31497 5.99434 0.945378 5.05513L4.32088 0H7.94018L5.18266 3.86849ZM4.5 6.26505C4.22831 6.26505 3.98395 6.33179 3.76659 6.46434C3.56006 6.58589 3.39654 6.76239 3.27698 6.99444C3.15743 7.21542 3.09786 7.46993 3.09786 7.75721C3.0979 8.04438 3.15745 8.3042 3.27698 8.53617C3.39654 8.75711 3.5601 8.93369 3.76659 9.06626C3.98392 9.18773 4.22835 9.24836 4.5 9.24836C4.77173 9.24835 5.01097 9.18781 5.21749 9.06626C5.4348 8.93369 5.60348 8.75708 5.72302 8.53617C5.84255 8.3042 5.9021 8.04438 5.90215 7.75721C5.90215 7.46994 5.84257 7.21542 5.72302 6.99444C5.60349 6.76246 5.43479 6.58588 5.21749 6.46434C5.01097 6.33175 4.77173 6.26505 4.5 6.26505Z" fill="#191F2A"/>
</svg>
