<svg width="9" height="12" viewBox="0 0 9 12" fill="none" xmlns="http://www.w3.org/2000/svg">
<path d="M8.70528 1.77339L6.29739 4.51593C6.72392 4.56651 7.11607 4.69685 7.47327 4.90642C7.94387 5.18263 8.31634 5.58002 8.59 6.09914C8.86373 6.60743 9 7.21593 9 7.92312C8.99992 8.72956 8.79757 9.44203 8.39252 10.0607C7.99839 10.6683 7.43482 11.1436 6.70138 11.4861C5.97878 11.8286 5.12447 12 4.13912 12C3.30696 12 2.52908 11.8615 1.80642 11.5852C1.09486 11.2979 0.492644 10.8946 0 10.3753L2.05302 8.33687C2.23916 8.60207 2.52388 8.82371 2.90711 9.00051C3.29027 9.16619 3.68494 9.24836 4.09 9.24836C4.41832 9.24831 4.70839 9.1929 4.96012 9.08245C5.22282 8.97195 5.4253 8.81182 5.56761 8.60192C5.72078 8.39209 5.79811 8.13829 5.79817 7.84016C5.79817 7.54182 5.7209 7.28734 5.56761 7.07739C5.41436 6.86753 5.19556 6.70735 4.91101 6.59686C4.62632 6.48637 4.28669 6.43096 3.89252 6.43096C3.67353 6.43096 3.43762 6.44738 3.18579 6.48053C3.00534 6.4971 2.85566 6.52323 2.73669 6.55842L2.62742 6.59686V4.82347L4.39875 2.71826H0.870127V0H8.70528V1.77339Z" fill="#191F2A"/>
</svg>
