<svg width="10" height="12" viewBox="0 0 10 12" fill="none" xmlns="http://www.w3.org/2000/svg">
<path d="M5.01583 12C4.04536 12 3.18038 11.7446 2.42089 11.2337C1.67195 10.712 1.08123 10 0.64874 9.09783C0.21625 8.18478 0 7.14674 0 5.9837C0 4.82065 0.21097 3.78804 0.63291 2.88587C1.0654 1.9837 1.65612 1.27717 2.40506 0.766304C3.15401 0.255435 4.01371 0 4.98417 0C5.96519 0 6.83016 0.255435 7.57911 0.766304C8.3386 1.27717 8.92932 1.9837 9.35126 2.88587C9.78375 3.78804 10 4.82609 10 6C10 7.17391 9.78375 8.21196 9.35126 9.11413C8.92932 10.0163 8.34388 10.7228 7.59493 11.2337C6.84599 11.7446 5.98629 12 5.01583 12ZM5 9.22826C5.39029 9.22826 5.72257 9.10326 5.99683 8.85326C6.2711 8.60326 6.47679 8.23913 6.61392 7.76087C6.7616 7.27174 6.83544 6.68478 6.83544 6C6.83544 5.31522 6.7616 4.7337 6.61392 4.25543C6.47679 3.77717 6.2711 3.41304 5.99683 3.16304C5.72257 2.90217 5.38502 2.77174 4.98417 2.77174C4.60443 2.77174 4.27743 2.89674 4.00317 3.14674C3.7289 3.39674 3.51793 3.76087 3.37026 4.23913C3.23312 4.71739 3.16456 5.29891 3.16456 5.9837C3.16456 6.66848 3.23312 7.25543 3.37026 7.74457C3.51793 8.22283 3.7289 8.59239 4.00317 8.85326C4.27743 9.10326 4.6097 9.22826 5 9.22826Z" fill="#191F2A"/>
</svg>
