<svg width="9" height="12" viewBox="0 0 9 12" fill="none" xmlns="http://www.w3.org/2000/svg">
<path d="M8.36064 0V2.71826H4.12029L3.97521 4C3.98349 3.9984 3.99193 3.99647 4.00022 3.99494C4.24061 3.93972 4.52492 3.91199 4.8527 3.91199C5.75955 3.91203 6.51905 4.09374 7.13096 4.45827C7.74297 4.82291 8.2078 5.30931 8.52474 5.91705C8.84159 6.5136 8.99994 7.16553 9 7.87253C9 8.67906 8.80301 9.39754 8.40967 10.0273C8.02723 10.646 7.48095 11.1325 6.77076 11.4861C6.06047 11.8286 5.20772 12 4.21334 12C3.41557 12 2.63403 11.8615 1.86904 11.5852C1.11496 11.2979 0.491793 10.8947 0 10.3753L2.06515 8.33687C2.25094 8.60207 2.53003 8.82371 2.90161 9.00051C3.28405 9.16619 3.67798 9.24836 4.08227 9.24836C4.43182 9.24831 4.7325 9.18776 4.98377 9.06626C5.23502 8.94472 5.43207 8.77328 5.5741 8.55235C5.716 8.32046 5.78717 8.0553 5.78721 7.75721C5.78721 7.45886 5.71009 7.1931 5.55709 6.96105C5.41501 6.7181 5.20177 6.53012 4.91773 6.39757C4.63372 6.25405 4.28416 6.18214 3.86915 6.18209C3.51958 6.18209 3.1915 6.2376 2.8856 6.348C2.65603 6.4309 2.45063 6.5294 2.27026 6.6434L2.09817 6.76277L0.901501 5.70157L1.50784 0H8.36064Z" fill="#191F2A"/>
</svg>
