<svg width="9" height="12" viewBox="0 0 9 12" fill="none" xmlns="http://www.w3.org/2000/svg">
<path d="M4.46692 0C5.35382 0 6.11543 0.160084 6.7505 0.480526C7.39634 0.789855 7.8887 1.23753 8.22811 1.82296C8.5785 2.4086 8.7544 3.10536 8.7544 3.91199C8.75437 4.36487 8.69336 4.78999 8.57296 5.18766C8.45255 5.58534 8.26123 5.97755 7.99855 6.36419C7.73578 6.73986 7.39611 7.12676 6.98006 7.52453L5.14658 9.28174H9V12H0.115282V10.2266L4.77968 5.48609C4.96574 5.29832 5.11331 5.12683 5.22277 4.97218C5.34318 4.80646 5.42558 4.65146 5.46937 4.50784C5.52401 4.36433 5.55157 4.21524 5.55157 4.0607C5.55155 3.67402 5.42544 3.37019 5.17365 3.14922C4.93278 2.91719 4.60428 2.80123 4.18824 2.80121C3.81602 2.80121 3.4712 2.91725 3.15371 3.14922C2.83625 3.37016 2.49646 3.75111 2.13522 4.29236L0 2.35407C0.481694 1.58072 1.1002 0.994651 1.85554 0.596864C2.62188 0.199134 3.4926 6.11319e-05 4.46692 0Z" fill="#191F2A"/>
</svg>
