<svg width="20" height="20" viewBox="0 0 20 20" fill="none" xmlns="http://www.w3.org/2000/svg">
<path d="M16.9137 11.8374L10.6637 5.58744C10.5766 5.50004 10.4731 5.43069 10.3592 5.38337C10.2452 5.33605 10.1231 5.3117 9.99967 5.3117C9.87628 5.3117 9.75411 5.33605 9.64016 5.38337C9.5262 5.43069 9.42271 5.50004 9.33561 5.58744L3.08561 11.8374C2.90949 12.0136 2.81055 12.2524 2.81055 12.5015C2.81055 12.7506 2.90949 12.9894 3.08561 13.1656C3.26173 13.3417 3.5006 13.4406 3.74967 13.4406C3.99874 13.4406 4.23762 13.3417 4.41374 13.1656L10.0005 7.57884L15.5872 13.1663C15.7633 13.3425 16.0022 13.4414 16.2512 13.4414C16.5003 13.4414 16.7392 13.3425 16.9153 13.1663C17.0914 12.9902 17.1904 12.7514 17.1904 12.5023C17.1904 12.2532 17.0914 12.0143 16.9153 11.8382L16.9137 11.8374Z" fill="#191F2A"/>
</svg>
