<svg width="20" height="20" viewBox="0 0 20 20" fill="none" xmlns="http://www.w3.org/2000/svg">
<path d="M19.6875 10.0006C19.6876 10.9277 19.4128 11.8341 18.8977 12.6051C18.3827 13.3761 17.6505 13.9769 16.7939 14.3318C15.9373 14.6866 14.9947 14.7794 14.0854 14.5985C13.176 14.4176 12.3407 13.9711 11.6852 13.3154L11.6469 13.274L6.97034 7.99353C6.57496 7.6054 6.07376 7.34269 5.52962 7.23837C4.98549 7.13405 4.42266 7.19277 3.91177 7.40715C3.40088 7.62154 2.9647 7.98205 2.65795 8.44343C2.3512 8.90481 2.18756 9.44652 2.18756 10.0006C2.18756 10.5546 2.3512 11.0963 2.65795 11.5577C2.9647 12.0191 3.40088 12.3796 3.91177 12.594C4.42266 12.8084 4.98549 12.8671 5.52962 12.7628C6.07376 12.6584 6.57496 12.3957 6.97034 12.0076L7.21096 11.7357C7.37579 11.5492 7.60795 11.4359 7.85636 11.4206C8.10477 11.4053 8.34909 11.4893 8.53557 11.6541C8.72205 11.8189 8.83542 12.0511 8.85073 12.2995C8.86604 12.5479 8.78204 12.7922 8.61721 12.9787L8.35549 13.274L8.31721 13.3154C7.66162 13.9709 6.82639 14.4172 5.91712 14.5981C5.00786 14.7789 4.0654 14.686 3.20892 14.3312C2.35244 13.9764 1.62039 13.3756 1.10536 12.6047C0.590327 11.8339 0.31543 10.9276 0.31543 10.0006C0.31543 9.0735 0.590327 8.16725 1.10536 7.39641C1.62039 6.62557 2.35244 6.02476 3.20892 5.66995C4.0654 5.31515 5.00786 5.22227 5.91712 5.40307C6.82639 5.58388 7.66162 6.03024 8.31721 6.68572L8.35549 6.72713L13.0321 12.0076C13.4274 12.3957 13.9286 12.6584 14.4728 12.7628C15.0169 12.8671 15.5797 12.8084 16.0906 12.594C16.6015 12.3796 17.0377 12.0191 17.3444 11.5577C17.6512 11.0963 17.8148 10.5546 17.8148 10.0006C17.8148 9.44652 17.6512 8.90481 17.3444 8.44343C17.0377 7.98205 16.6015 7.62154 16.0906 7.40715C15.5797 7.19277 15.0169 7.13405 14.4728 7.23837C13.9286 7.34269 13.4274 7.6054 13.0321 7.99353L12.7914 8.26541C12.7098 8.35774 12.6108 8.4331 12.5001 8.48717C12.3893 8.54125 12.269 8.57298 12.146 8.58056C12.023 8.58814 11.8997 8.57142 11.7832 8.53136C11.6667 8.49129 11.5592 8.42866 11.4668 8.34705C11.3745 8.26543 11.2991 8.16643 11.2451 8.05569C11.191 7.94496 11.1592 7.82465 11.1517 7.70165C11.1441 7.57865 11.1608 7.45536 11.2009 7.33882C11.2409 7.22228 11.3036 7.11477 11.3852 7.02244L11.6469 6.72713L11.6852 6.68572C12.3407 6.03005 13.176 5.58352 14.0854 5.4026C14.9947 5.22169 15.9373 5.31452 16.7939 5.66935C17.6505 6.02418 18.3827 6.62508 18.8977 7.39603C19.4128 8.16699 19.6876 9.07338 19.6875 10.0006Z" fill="#191F2A"/>
</svg>
