<svg width="20" height="20" viewBox="0 0 20 20" fill="none" xmlns="http://www.w3.org/2000/svg">
<path d="M9.41374 13.0863C9.50114 13.1734 9.57048 13.2769 9.6178 13.3908C9.66512 13.5048 9.68948 13.627 9.68948 13.7503C9.68948 13.8737 9.66512 13.9959 9.6178 14.1099C9.57048 14.2238 9.50114 14.3273 9.41374 14.4144L6.91374 16.9144C6.82664 17.0018 6.72315 17.0712 6.60919 17.1185C6.49524 17.1658 6.37306 17.1902 6.24967 17.1902C6.12628 17.1902 6.00411 17.1658 5.89016 17.1185C5.7762 17.0712 5.67271 17.0018 5.58561 16.9144L3.08561 14.4144C2.9984 14.3272 2.92923 14.2237 2.88203 14.1097C2.83484 13.9958 2.81055 13.8737 2.81055 13.7503C2.81055 13.627 2.83484 13.5049 2.88203 13.391C2.92923 13.277 2.9984 13.1735 3.08561 13.0863C3.17282 12.9991 3.27634 12.9299 3.39028 12.8827C3.50422 12.8355 3.62635 12.8112 3.74967 12.8112C3.873 12.8112 3.99512 12.8355 4.10906 12.8827C4.223 12.9299 4.32653 12.9991 4.41374 13.0863L5.31295 13.9839V3.74957C5.31295 3.50093 5.41173 3.26247 5.58754 3.08665C5.76336 2.91084 6.00181 2.81207 6.25045 2.81207C6.49909 2.81207 6.73755 2.91084 6.91337 3.08665C7.08918 3.26247 7.18795 3.50093 7.18795 3.74957V13.9839L8.08717 13.0839C8.1744 12.9969 8.27791 12.928 8.39181 12.881C8.5057 12.834 8.62774 12.8099 8.75094 12.8102C8.87414 12.8104 8.99609 12.8349 9.10982 12.8823C9.22355 12.9296 9.32682 12.999 9.41374 13.0863ZM16.9137 5.58629L14.4137 3.08629C14.3266 2.99889 14.2231 2.92954 14.1092 2.88222C13.9952 2.8349 13.8731 2.81055 13.7497 2.81055C13.6263 2.81055 13.5041 2.8349 13.3902 2.88222C13.2762 2.92954 13.1727 2.99889 13.0856 3.08629L10.5856 5.58629C10.4095 5.76241 10.3105 6.00128 10.3105 6.25035C10.3105 6.49942 10.4095 6.73829 10.5856 6.91441C10.7617 7.09053 11.0006 7.18947 11.2497 7.18948C11.4987 7.18948 11.7376 7.09053 11.9137 6.91441L12.813 6.01519V16.2496C12.813 16.4982 12.9117 16.7367 13.0875 16.9125C13.2634 17.0883 13.5018 17.1871 13.7505 17.1871C13.9991 17.1871 14.2376 17.0883 14.4134 16.9125C14.5892 16.7367 14.688 16.4982 14.688 16.2496V6.01519L15.5872 6.91519C15.7633 7.09131 16.0022 7.19026 16.2512 7.19026C16.5003 7.19026 16.7392 7.09131 16.9153 6.91519C17.0914 6.73907 17.1904 6.5002 17.1904 6.25113C17.1904 6.00206 17.0914 5.76319 16.9153 5.58707L16.9137 5.58629Z" fill="#191F2A"/>
</svg>
