<svg width="20" height="20" viewBox="0 0 20 20" fill="none" xmlns="http://www.w3.org/2000/svg">
<path d="M11.4008 1.15327C11.2852 1.05744 11.1483 0.99078 11.0016 0.95889C10.8548 0.927 10.7026 0.930816 10.5577 0.970017C10.4127 1.00922 10.2793 1.08266 10.1687 1.18416C10.058 1.28565 9.9734 1.41224 9.92188 1.55327L8.36484 5.81968L6.82656 4.32671C6.7315 4.2344 6.61795 4.16329 6.4934 4.11807C6.36885 4.07285 6.23613 4.05454 6.10399 4.06436C5.97185 4.07418 5.84329 4.1119 5.72679 4.17503C5.61029 4.23816 5.5085 4.32527 5.42813 4.43061C3.69297 6.70405 2.8125 8.99858 2.8125 11.2494C2.8125 13.1556 3.56975 14.9838 4.91767 16.3317C6.26559 17.6796 8.09376 18.4369 10 18.4369C11.9062 18.4369 13.7344 17.6796 15.0823 16.3317C16.4302 14.9838 17.1875 13.1556 17.1875 11.2494C17.1875 6.47202 13.1406 2.59702 11.4008 1.15327ZM10 16.5619C8.59148 16.5604 7.24107 16.0002 6.24509 15.0043C5.24912 14.0083 4.68895 12.6579 4.6875 11.2494C4.6875 9.69155 5.23438 8.07593 6.30547 6.43374L8.09688 8.17202C8.20911 8.28092 8.3468 8.36002 8.49742 8.40211C8.64803 8.4442 8.80678 8.44794 8.95921 8.413C9.11164 8.37805 9.25291 8.30553 9.37015 8.20204C9.48739 8.09855 9.57688 7.96737 9.63047 7.82046L11.2094 3.49233C12.9211 5.12514 15.3125 7.99077 15.3125 11.2494C15.3111 12.6579 14.7509 14.0083 13.7549 15.0043C12.7589 16.0002 11.4085 16.5604 10 16.5619Z" fill="#191F2A"/>
</svg>
