<svg width="20" height="20" viewBox="0 0 20 20" fill="none" xmlns="http://www.w3.org/2000/svg">
<path d="M6.83657 15.5876C6.66045 15.7637 6.5615 16.0026 6.5615 16.2516C6.5615 16.5007 6.66045 16.7396 6.83657 16.9157C7.01269 17.0918 7.25156 17.1908 7.50063 17.1908C7.7497 17.1908 7.98857 17.0918 8.16469 16.9157L14.4147 10.6657C14.5021 10.5786 14.5714 10.4751 14.6188 10.3611C14.6661 10.2472 14.6904 10.125 14.6904 10.0016C14.6904 9.87824 14.6661 9.75606 14.6188 9.64211C14.5714 9.52815 14.5021 9.42466 14.4147 9.33756L8.16469 3.08756C7.98857 2.91144 7.7497 2.8125 7.50063 2.8125C7.25156 2.8125 7.01269 2.91144 6.83657 3.08756C6.66045 3.26368 6.5615 3.50255 6.5615 3.75163C6.5615 4.0007 6.66045 4.23957 6.83657 4.41569L12.4217 10.0008L6.83657 15.5876Z" fill="#191F2A"/>
</svg>
