<svg width="20" height="20" viewBox="0 0 20 20" fill="none" xmlns="http://www.w3.org/2000/svg">
<path d="M18.7308 7.09538C18.7308 7.10397 18.7308 7.11178 18.7253 7.12038L16.9535 15.2352C16.8989 15.521 16.7464 15.7787 16.5223 15.9641C16.2981 16.1495 16.0163 16.2509 15.7253 16.2508H4.27457C3.9838 16.2507 3.70216 16.1493 3.47814 15.9639C3.25413 15.7785 3.10174 15.5208 3.04722 15.2352L1.27535 7.12038C1.27535 7.11178 1.27144 7.10397 1.26988 7.09538C1.22138 6.8267 1.26218 6.54954 1.38604 6.30624C1.5099 6.06295 1.71001 5.86689 1.95579 5.74803C2.20157 5.62917 2.47951 5.59404 2.74714 5.64802C3.01476 5.70199 3.25735 5.8421 3.43785 6.04694L6.06832 8.88209L8.86519 2.60944C8.86532 2.60684 8.86532 2.60423 8.86519 2.60163C8.9652 2.38471 9.12527 2.20099 9.32645 2.07221C9.52762 1.94344 9.76148 1.875 10.0003 1.875C10.2392 1.875 10.4731 1.94344 10.6742 2.07221C10.8754 2.20099 11.0355 2.38471 11.1355 2.60163C11.1354 2.60423 11.1354 2.60684 11.1355 2.60944L13.9324 8.88209L16.5628 6.04694C16.7437 5.84362 16.986 5.70488 17.2529 5.65179C17.5198 5.59869 17.7967 5.63414 18.0416 5.75276C18.2865 5.87137 18.4861 6.06666 18.6099 6.30898C18.7337 6.5513 18.7751 6.82741 18.7277 7.09538H18.7308Z" fill="#191F2A"/>
</svg>
