<svg width="20" height="20" viewBox="0 0 20 20" fill="none" xmlns="http://www.w3.org/2000/svg">
<path d="M18.9841 7.49973C18.8872 7.20075 18.7038 6.93724 18.4571 6.74254C18.2104 6.54784 17.9115 6.43072 17.5982 6.40598L13.1771 6.04895L11.4708 1.92317C11.3509 1.63158 11.1471 1.3822 10.8851 1.2067C10.6232 1.0312 10.315 0.9375 9.99974 0.9375C9.68445 0.9375 9.37628 1.0312 9.11435 1.2067C8.85242 1.3822 8.64856 1.63158 8.52865 1.92317L6.82396 6.04973L2.40287 6.40598C2.08898 6.43187 1.78974 6.54995 1.54276 6.7454C1.29578 6.94084 1.11208 7.20492 1.01474 7.50446C0.917401 7.80399 0.910765 8.12562 0.995667 8.42891C1.08057 8.73221 1.25322 9.00364 1.49193 9.20911L4.86537 12.1185L3.83412 16.47C3.7589 16.7768 3.77669 17.0991 3.88523 17.3958C3.99376 17.6924 4.18813 17.9501 4.44358 18.1359C4.69903 18.3217 5.004 18.4273 5.31967 18.4392C5.63533 18.4512 5.9474 18.3689 6.21615 18.2029L9.99974 15.874L13.7833 18.2029C14.052 18.3678 14.3636 18.4493 14.6786 18.437C14.9936 18.4247 15.2979 18.3193 15.5529 18.134C15.808 17.9487 16.0023 17.6919 16.1113 17.3962C16.2203 17.1004 16.2391 16.7789 16.1654 16.4724L15.1341 12.1208L18.5076 9.21145C18.7477 9.00549 18.9212 8.73281 19.006 8.42804C19.0909 8.12327 19.0833 7.80016 18.9841 7.49973ZM13.4786 11.07C13.3486 11.1822 13.2518 11.3279 13.1989 11.4913C13.146 11.6547 13.139 11.8295 13.1786 11.9966L14.1857 16.2497L10.4911 13.9779C10.3434 13.8869 10.1733 13.8387 9.99974 13.8387C9.82622 13.8387 9.65611 13.8869 9.50833 13.9779L5.8138 16.2497L6.82083 11.9997C6.8605 11.8326 6.8535 11.6578 6.80059 11.4944C6.74769 11.331 6.65091 11.1853 6.52083 11.0732L3.21849 8.22161L7.54662 7.87239C7.71885 7.85855 7.88391 7.79738 8.02357 7.69564C8.16323 7.59389 8.27205 7.45553 8.33802 7.29583L9.99974 3.27239L11.6615 7.29583C11.7274 7.45553 11.8363 7.59389 11.9759 7.69564C12.1156 7.79738 12.2806 7.85855 12.4529 7.87239L16.781 8.22161L13.4786 11.07Z" fill="#191F2A"/>
</svg>
