<svg width="20" height="20" viewBox="0 0 20 20" fill="none" xmlns="http://www.w3.org/2000/svg">
<path d="M19.0082 7.10177L8.97696 17.133C8.74256 17.3673 8.42475 17.4988 8.09337 17.4988C7.76199 17.4988 7.44417 17.3673 7.20977 17.133L1.61446 11.508C1.38046 11.2737 1.24902 10.956 1.24902 10.6248C1.24902 10.2936 1.38046 9.97597 1.61446 9.74161L3.17696 8.17911C3.41123 7.94582 3.72838 7.81484 4.05899 7.81484C4.38961 7.81484 4.70675 7.94582 4.94102 8.17911L8.12462 11.2666L15.684 3.8002C15.9183 3.56668 16.2356 3.43555 16.5664 3.43555C16.8972 3.43555 17.2145 3.56668 17.4488 3.8002L19.0074 5.32677C19.1246 5.44292 19.2177 5.58113 19.2812 5.73343C19.3447 5.88572 19.3775 6.04909 19.3776 6.2141C19.3776 6.37912 19.345 6.54251 19.2816 6.69487C19.2183 6.84722 19.1253 6.98551 19.0082 7.10177Z" fill="#191F2A"/>
</svg>
